HIERARCHY
ROOT Hips
{
	OFFSET 0.00000 0.00000 0.00000
	CHANNELS 6 Xposition Yposition Zposition Yrotation Zrotation Xrotation 
	JOINT Lumbar
	{
		OFFSET 0 0 0
		CHANNELS 3 Zrotation Xrotation Yrotation
		JOINT Neck
		{
			OFFSET 0.00 0.2701 0.00
			CHANNELS 3 Zrotation Xrotation Yrotation
			End Site
			{
				OFFSET 0.00 0.1379 0.00
			}
		}
		JOINT RightShoulder
		{
			OFFSET 0.0119 0.2289 0.1181
			CHANNELS 3 Zrotation Xrotation Yrotation
			JOINT RightElbow
			{
				OFFSET 0.00 -0.1475 0.00
				CHANNELS 2 Zrotation Yrotation
				JOINT RightWrist
				{
					OFFSET 0.00 -0.1605 0.00
					CHANNELS 2 Zrotation Xrotation
					End Site
					{
						OFFSET 0.0040 -0.1068 0.0006
					}
				}
			}
		}
		JOINT LeftShoulder
		{
			OFFSET 0.0119 0.2289 -0.1181
			CHANNELS 3 Zrotation Xrotation Yrotation
			JOINT LeftElbow
			{
				OFFSET 0.00 -0.1475 0.00
				CHANNELS 2 Zrotation Yrotation
				JOINT LeftWrist
				{
					OFFSET 0.00 -0.1605 0.00
					CHANNELS 2 Zrotation Xrotation
					End Site
					{
						OFFSET 0.0040 -0.1068 -0.0006
					}
				}
			}
		}
	}
	JOINT RightHip
	{
		OFFSET 0.0316 -0.0424 0.0458
		CHANNELS 3 Zrotation Xrotation Yrotation
		JOINT RightKnee
		{
			OFFSET 0.00 -0.2438 0.00
			CHANNELS 1 Zrotation
			JOINT RightAnkle
			{
				OFFSET 0.00 -0.2449 0.00
				CHANNELS 3 Zrotation Xrotation Yrotation
				End Site
				{
					OFFSET 0.1237 -0.0542 0.0051
				}
			}
		}
	}
	JOINT LeftHip
	{
		OFFSET 0.0316 -0.0424 -0.0458
		CHANNELS 3 Zrotation Xrotation Yrotation
		JOINT LeftKnee
		{
			OFFSET 0.00 -0.2438 0.00
			CHANNELS 1 Zrotation
			JOINT LeftAnkle
			{
				OFFSET 0.00 -0.2449 0.00
				CHANNELS 3 Zrotation Xrotation Yrotation
				End Site
				{
					OFFSET 0.1237 -0.0542 -0.0051
				}
			}
		}
	}
}
MOTION
Frames: 33
Frame Time: 0.02
-0.00106 0.00013 6e-05 24.18837 -30.39869 -5.50455 48.08922 1.7257 -6.69651 7.32263 -1.96477 -0.81882 -22.74378 -55.4849 30.10667 86.69954 89.82718 30.0128 -1.68342 11.10083 11.38665 -9.77459 51.39214 -91.29443 7.96796 -0.48205 43.58793 -0.52924 0.26858 -19.50524 -6.79701 -3.49886 -3.95931 47.52993 3.63371 0.90382 -24.99334 -6.56353 1.9205 3.23582
-0.00122 0.0001 -9e-05 24.12068 -30.3175 -5.46953 48.09685 1.78652 -6.99546 6.88889 -2.04547 -0.82181 -24.86418 -54.94701 28.98389 86.98609 89.20373 28.49933 -1.78254 10.05603 11.72583 -9.84117 51.51649 -90.81897 7.47669 -0.46178 43.49773 -0.71557 -0.56869 -19.49873 -6.76557 -3.41458 -3.91401 47.42598 3.71429 1.42713 -24.99424 -6.58071 1.8915 3.21396
-0.00137 7e-05 -0.00024 24.05296 -30.23653 -5.43449 48.10453 1.84728 -7.29409 6.45576 -2.12611 -0.82481 -26.98061 -54.40956 27.86248 87.2727 88.58213 26.99018 -1.88143 9.01171 12.06438 -9.90679 51.6399 -90.34482 6.98678 -0.44167 43.40779 -0.90155 -1.40389 -19.49221 -6.73421 -3.33047 -3.86881 47.32228 3.79463 1.94941 -24.99514 -6.59786 1.86255 3.19215
-0.00153 5e-05 -0.00039 23.98544 -30.15559 -5.39956 48.11215 1.90792 -7.59221 6.02325 -2.20659 -0.82779 -29.09489 -53.87312 26.74279 87.55851 87.96059 25.48139 -1.98025 7.96971 12.40259 -9.97306 51.76379 -89.87084 6.49704 -0.42148 43.31787 -1.08735 -2.23869 -19.48572 -6.70286 -3.24644 -3.82364 47.21863 3.87497 2.47121 -24.99604 -6.61499 1.83363 3.17036
-0.00169 2e-05 -0.00054 23.91803 -30.07444 -5.36471 48.11968 1.96858 -7.89045 5.59037 -2.28706 -0.83078 -31.21216 -53.33676 25.62261 87.84395 87.33721 23.96821 -2.07932 6.92815 12.74124 -10.04054 51.88878 -89.3955 6.00589 -0.40112 43.22767 -1.2734 -3.07531 -19.47923 -6.67144 -3.16229 -3.7784 47.11475 3.95554 2.99381 -24.99692 -6.63215 1.80469 3.14852
-0.00185 -0 -0.00069 23.84964 -29.99382 -5.32926 48.12765 2.02957 -8.18987 5.15674 -2.36806 -0.83378 -33.32669 -52.79707 24.49872 88.13303 86.71938 22.46751 -2.17784 5.87806 13.07954 -10.10222 52.00887 -88.92384 5.51857 -0.38151 43.13829 -1.45921 -3.90742 -19.47265 -6.64023 -3.07828 -3.73328 47.01143 4.03538 3.51537 -24.99787 -6.64925 1.77572 3.12677
-0.002 -3e-05 -0.00084 23.78335 -29.91225 -5.29506 48.13477 2.0898 -8.48656 4.72517 -2.44791 -0.83672 -35.44435 -52.26455 23.38336 88.41434 86.09113 20.94394 -2.27725 4.84655 13.41827 -10.1756 52.13877 -88.44557 5.02439 -0.36041 43.04738 -1.64533 -4.74784 -19.46627 -6.60862 -2.99407 -3.68795 46.90711 4.11662 4.03848 -24.99869 -6.66645 1.74683 3.10487
-0.00216 -5e-05 -0.00099 23.71501 -29.83152 -5.25969 48.14261 2.15076 -8.78578 4.29156 -2.52877 -0.83978 -37.55923 -51.72567 22.26044 88.70307 85.47237 19.44041 -2.37607 3.79743 13.75642 -10.23799 52.25947 -87.97288 4.53594 -0.34068 42.95787 -1.83112 -5.58032 -19.45969 -6.57738 -2.91006 -3.64283 46.80367 4.19654 4.56007 -24.99962 -6.68356 1.71788 3.08312
-0.00232 -8e-05 -0.00114 23.64454 -29.75195 -5.22292 48.15159 2.21253 -9.08831 3.8557 -2.61114 -0.84275 -39.67161 -51.17755 21.12622 89.00014 84.86543 17.96486 -2.47327 2.72775 14.09481 -10.28763 52.36945 -87.50886 4.05662 -0.32265 42.87007 -2.01677 -6.40462 -19.45291 -6.54655 -2.82615 -3.5979 46.7014 4.27498 5.08049 -25.00071 -6.70058 1.68876 3.06147
-0.00247 -0.00011 -0.00128 23.58746 -29.66608 -5.19429 48.15478 2.2694 -9.37246 3.43352 -2.68565 -0.84553 -41.80123 -50.67815 20.05076 89.24704 84.19111 16.33873 -2.57708 1.77918 14.43467 -10.41269 52.54271 -87.00049 3.53114 -0.29491 42.77243 -2.20404 -7.28061 -19.44743 -6.51325 -2.74124 -3.55167 46.59271 4.36235 5.60976 -25.00094 -6.71817 1.66034 3.03902
-0.00264 -0.00013 -0.00144 23.50144 -29.59327 -5.14846 48.16971 2.33677 -9.69488 2.98213 -2.77622 -0.84917 -43.8922 -50.07896 18.85562 89.60105 83.65858 15.02379 -2.66867 0.57368 14.76956 -10.3774 52.58149 -86.58222 3.09904 -0.28763 42.69555 -2.38736 -8.04448 -19.43912 -6.48525 -2.65874 -3.50831 46.49739 4.4306 6.1189 -25.00296 -6.73453 1.63064 3.01838
-0.00286 -0.00017 -0.00166 23.34083 -29.55847 -5.05521 48.22105 2.43173 -10.12738 2.45198 -2.91532 -0.85143 -45.89436 -49.17841 17.29551 90.24068 83.52435 14.62256 -2.71274 -1.33319 15.10599 -9.90792 52.25603 -86.44126 2.95852 -0.33718 42.67629 -2.56439 -8.52424 -19.42366 -6.47109 -2.58012 -3.47168 46.44042 4.44834 6.58452 -25.0101 -6.74775 1.59576 3.00186
-0.0031 -0.00021 -0.00189 23.15023 -29.53638 -4.94477 48.28339 2.53742 -10.59708 1.8922 -3.06949 -0.85521 -47.85319 -48.18303 15.624 90.98842 83.53246 14.52164 -2.74745 -3.49843 15.43449 -9.27674 51.79506 -86.38486 2.9052 -0.40711 42.67776 -2.7367 -8.88784 -19.40526 -6.46238 -2.50432 -3.4381 46.39657 4.44655 7.02772 -25.01899 -6.75967 1.55991 2.98732
-0.00334 -0.00025 -0.00212 22.97027 -29.50708 -4.84228 48.33794 2.63905 -11.0468 1.34509 -3.2142 -0.8608 -49.82239 -47.24858 14.02467 91.69339 83.46726 14.24557 -2.79515 -5.54831 15.75684 -8.71518 51.3924 -86.27049 2.78888 -0.46728 42.66933 -2.90813 -9.28821 -19.38776 -6.45165 -2.42913 -3.40392 46.34562 4.45236 7.47361 -25.02692 -6.77204 1.52559 2.97243
-0.00355 -0.00029 -0.00234 22.80304 -29.48388 -4.739 48.40428 2.73744 -11.51072 0.80137 -3.37097 -0.85603 -51.83654 -46.23736 12.32568 92.3758 83.43183 14.1377 -2.80459 -7.59147 16.12084 -8.16785 51.00152 -86.24007 2.77141 -0.52972 42.66297 -3.09203 -9.75274 -19.37199 -6.43905 -2.34637 -3.36659 46.29948 4.46334 7.95129 -25.03556 -6.78507 1.48662 2.95524
-0.00381 -0.00032 -0.00257 22.60197 -29.45096 -4.63348 48.44868 2.84489 -11.95243 0.24343 -3.50495 -0.87296 -53.73967 -45.36519 10.81844 93.12569 83.37679 13.74525 -2.8932 -9.70806 16.3956 -7.55475 50.5562 -86.05323 2.56875 -0.59211 42.65721 -3.2492 -10.06015 -19.35206 -6.43159 -2.27954 -3.33633 46.24643 4.45917 8.35723 -25.04314 -6.79636 1.45718 2.94331
-0.00418 -0.00032 -0.00281 22.31705 -29.38847 -4.52458 48.42975 2.97646 -12.33638 -0.34546 -3.58271 -0.95153 -55.40719 -44.88416 9.77509 94.07908 83.15283 12.54457 -3.18644 -11.97825 16.43018 -6.77982 49.97611 -85.42372 1.83241 -0.65163 42.64814 -3.33048 -9.92624 -19.32013 -6.43724 -2.26036 -3.32684 46.17124 4.41595 8.57221 -25.04733 -6.80351 1.4536 2.9452
-0.00458 -0.0003 -0.00305 21.9989 -29.31575 -4.41434 48.38845 3.11636 -12.69445 -0.948 -3.63498 -1.0515 -56.9529 -44.54751 8.94373 95.08839 82.91546 11.04166 -3.56144 -14.31028 16.37379 -5.94691 49.3498 -84.62959 0.90673 -0.71077 42.63899 -3.38542 -9.64392 -19.28434 -6.44782 -2.25643 -3.32406 46.0887 4.35855 8.71531 -25.05042 -6.80889 1.45976 2.95234
-0.00497 -0.00028 -0.00329 21.69421 -29.2474 -4.30555 48.35732 3.25141 -13.05586 -1.54471 -3.69221 -1.14035 -58.5152 -44.15768 8.07902 96.0436 82.74119 9.63824 -3.91134 -16.60528 16.35701 -5.15502 48.75558 -83.90737 0.06854 -0.76762 42.62974 -3.4548 -9.45446 -19.25107 -6.456 -2.24246 -3.31682 46.00933 4.309 8.89045 -25.05404 -6.81483 1.4619 2.9572
-0.00537 -0.00027 -0.00356 21.39456 -29.18045 -4.19236 48.32619 3.3917 -13.45353 -2.14011 -3.77828 -1.23522 -60.24092 -43.71971 6.95353 97.12407 82.34609 8.38805 -4.21532 -18.94882 16.34983 -4.30017 48.1076 -83.21028 -0.77217 -0.83235 42.62156 -3.51443 -9.15794 -19.2144 -6.46509 -2.24116 -3.31536 45.93078 4.25285 9.06813 -25.05754 -6.82176 1.46227 2.96167
-0.00575 -0.00025 -0.00375 21.07799 -29.10828 -4.08856 48.29007 3.52244 -13.76978 -2.74207 -3.79762 -1.32252 -61.5963 -43.4079 6.41168 97.95504 82.38727 6.76446 -4.62779 -21.20026 16.29792 -3.559 47.56516 -82.40823 -1.65441 -0.88436 42.61115 -3.58712 -9.0453 -19.18403 -6.47334 -2.21777 -3.30375 45.84905 4.20729 9.22293 -25.06105 -6.82622 1.46868 2.96819
-0.00608 -0.00027 -0.00374 20.71364 -29.02182 -4.0084 48.24156 3.6289 -13.86107 -3.34992 -3.64213 -1.38435 -61.9711 -43.49452 7.52951 98.08582 83.79988 3.99504 -5.37798 -23.20006 16.17356 -3.19905 47.30317 -81.47306 -2.59689 -0.86384 42.59205 -3.71161 -9.52411 -19.17116 -6.47826 -2.12334 -3.25945 45.75657 4.19484 9.33902 -25.06456 -6.8244 1.48918 2.97899
-0.00639 -0.00029 -0.00366 20.33528 -28.9309 -3.93831 48.18948 3.72469 -13.87231 -3.96516 -3.41969 -1.43766 -61.97453 -43.68922 9.21046 97.96207 85.6237 0.89183 -6.22423 -25.09998 16.00271 -2.94824 47.1542 -80.42318 -3.57467 -0.83564 42.57109 -3.84854 -10.1853 -19.16493 -6.4821 -2.00727 -3.20522 45.66183 4.19353 9.43333 -25.06815 -6.82015 1.51547 2.99168
-0.00671 -0.0003 -0.00361 19.96948 -28.84351 -3.86538 48.14168 3.82256 -13.92428 -4.58305 -3.22575 -1.49442 -62.14121 -43.77692 10.56719 97.9533 87.14766 -1.9336 -6.98773 -27.03319 15.83342 -2.61113 46.96836 -79.3396 -4.54446 -0.83771 42.55254 -3.97362 -10.73193 -19.15624 -6.48627 -1.90531 -3.15752 45.5705 4.18697 9.53331 -25.07187 -6.81699 1.53921 3.00354
-0.00703 -0.00032 -0.00357 19.57631 -28.74931 -3.78503 48.08201 3.93223 -13.95711 -5.17713 -3.03911 -1.55379 -62.33026 -44.10749 12.21493 97.9515 89.13625 -5.29283 -7.91696 -29.02159 15.74064 -2.41933 46.7182 -78.58224 -5.49463 -0.73404 42.52735 -4.12359 -11.40514 -19.14511 -6.49127 -1.78604 -3.10166 45.4687 4.18075 9.64891 -25.07486 -6.81384 1.56289 3.01542
-0.00735 -0.00034 -0.0035 19.23729 -28.66853 -3.72258 48.04636 4.01491 -14.01098 -5.82105 -2.82163 -1.6053 -62.38194 -43.9641 13.3934 97.87147 90.26994 -7.62675 -8.52547 -30.86826 15.48232 -1.96096 46.6313 -77.15852 -6.48177 -0.83963 42.5156 -4.22542 -11.86234 -19.14063 -6.49426 -1.69723 -3.06021 45.38848 4.17658 9.7274 -25.07942 -6.81011 1.588 3.02766
-0.00765 -0.00037 -0.00337 19.0514 -28.62452 -3.70676 48.07935 4.02378 -14.14381 -6.61179 -2.53591 -1.63815 -62.18148 -42.41537 13.08707 97.65837 88.82013 -6.95422 -8.20244 -32.36528 14.74691 -0.65932 46.95209 -73.58817 -7.64882 -1.60506 42.54086 -4.18796 -11.6584 -19.1535 -6.49163 -1.69995 -3.06202 45.36662 4.17608 9.71232 -25.08809 -6.80547 1.61515 3.04017
-0.00795 -0.00039 -0.00321 18.92067 -28.59448 -3.70866 48.13646 4.00631 -14.30035 -7.45003 -2.22155 -1.66312 -61.84975 -40.39846 12.29774 97.37102 86.52378 -5.25697 -7.55819 -33.71895 13.8527 0.89927 47.43614 -69.4092 -8.83689 -2.56743 42.5798 -4.10237 -11.23511 -19.17274 -6.48704 -1.73362 -3.07847 45.36688 4.17721 9.66056 -25.09836 -6.80033 1.64354 3.05298
-0.00826 -0.00042 -0.00306 18.76468 -28.55904 -3.70269 48.18176 4.00191 -14.44552 -8.2596 -1.91997 -1.69098 -61.55448 -38.64093 11.76186 97.10402 84.68869 -4.08528 -7.07389 -35.12736 13.05235 2.28682 47.85621 -65.73584 -9.95502 -3.38579 42.61284 -4.04113 -10.92634 -19.1887 -6.48353 -1.75163 -3.0875 45.35823 4.17712 9.62333 -25.10804 -6.79536 1.67165 3.06583
-0.00856 -0.00045 -0.00291 18.60877 -28.51947 -3.69634 48.23064 3.99192 -14.59091 -9.10052 -1.6167 -1.72144 -61.34271 -36.68977 11.10171 96.8854 82.52374 -2.66164 -6.52953 -36.57877 12.15921 3.89872 48.23824 -61.11314 -11.3208 -4.4298 42.64452 -3.96986 -10.56187 -19.2065 -6.47916 -1.77554 -3.09937 45.34478 4.17927 9.59342 -25.11721 -6.79055 1.69886 3.07806
-0.00887 -0.00047 -0.00277 18.46627 -28.49184 -3.69481 48.27768 3.9882 -14.74186 -9.88585 -1.31144 -1.74476 -60.93243 -35.03018 10.57926 96.55086 80.86585 -1.52886 -6.03834 -37.90473 11.42166 5.10699 48.73533 -58.2976 -12.18613 -5.05597 42.68223 -3.90785 -10.25814 -19.22188 -6.47614 -1.79492 -3.10899 45.3465 4.17719 9.54097 -25.12778 -6.78533 1.72806 3.09155
-0.00923 -0.00049 -0.00266 18.34536 -28.49409 -3.70238 48.31516 4.00176 -14.90856 -10.51834 -1.00458 -1.74994 -59.99363 -34.28184 10.54371 95.92309 80.57754 -1.32342 -5.7217 -38.94591 11.158 5.12838 49.52235 -60.85468 -11.56907 -4.43536 42.73398 -3.88376 -10.18227 -19.22926 -6.47744 -1.79322 -3.10828 45.38571 4.1614 9.4259 -25.14224 -6.77902 1.76333 3.10899
-0.00961 -0.00049 -0.00256 18.2367 -28.50781 -3.71404 48.34971 4.02376 -15.07936 -11.09082 -0.69768 -1.74829 -58.86418 -33.84379 10.6623 95.18136 80.86396 -1.4636 -5.47709 -39.86102 11.05553 4.73769 50.41659 -65.20732 -10.46438 -3.39637 42.79115 -3.87057 -10.17303 -19.23392 -6.48014 -1.7862 -3.10493 45.43922 4.14149 9.29135 -25.15798 -6.77235 1.80031 3.12753
